<svg xmlns="http://www.w3.org/2000/svg" width="16.059" height="16.644" viewBox="0 0 16.059 16.644"><defs><style>.a{fill:#fd0e31;}</style></defs><path class="a" d="M22.227,8.738a1.3,1.3,0,0,1-.5-.279,1.214,1.214,0,0,1-.06-.111c-.153-.3-.511-1.012-1.235-1.012a1.27,1.27,0,0,0-.355.053,2.261,2.261,0,0,0-1.245.979c-.137.19-.246.34-.368.363a.573.573,0,0,1-.107.011c-.117,0-.182-.044-.194-.132a7.705,7.705,0,0,1-.024-1.17,6.049,6.049,0,0,0-.2-2.166A7.43,7.43,0,0,0,15.99,2.725c-.174-.168-.339-.327-.48-.473-.054-.067-.11-.128-.165-.187a1.908,1.908,0,0,1-.208-.251A5.848,5.848,0,0,1,14.6.646l-.04-.129a.6.6,0,0,0-.071-.162C14.41.17,14.319,0,14.179,0a.188.188,0,0,0-.067.013c-.241.091-.294.591-.341,1.032a2.506,2.506,0,0,1-.091.546.828.828,0,0,1-.239.3.8.8,0,0,0-.279.4.525.525,0,0,0,.052.417.491.491,0,0,1,.063.323.578.578,0,0,1-.174.32.578.578,0,0,0-.182.363.555.555,0,0,0,.172.411.505.505,0,0,1,.154.326c0,.113-.069.169-.153.241a.465.465,0,0,0-.2.489.576.576,0,0,0,.26.366c.1.082.167.137.162.23a1.042,1.042,0,0,1-.048.227.693.693,0,0,0,.044.647,3.2,3.2,0,0,0,.469.434,9.527,9.527,0,0,0-2.394-.759A17.9,17.9,0,0,1,7.621,5.19a3.053,3.053,0,0,0-.6-.214.059.059,0,0,0-.061.037c-.016.043.022.084.112.159l.242.2c.325.27.58.481.689.588q-.08-.028-.227-.092a.088.088,0,0,0-.117.02.108.108,0,0,0-.016.063A10.59,10.59,0,0,0,9.609,9.013c.824.983,2.408,2.632,3.752,2.632a1.569,1.569,0,0,0,.236-.018,16.034,16.034,0,0,1-4.2,2.727c-2.083.864-3.023,1.309-3.089,1.656a.235.235,0,0,0,.081.219.384.384,0,0,0,.269.13.552.552,0,0,0,.182-.041.566.566,0,0,1,.189-.042.458.458,0,0,1,.245.082,1.508,1.508,0,0,0,.831.286,2.192,2.192,0,0,0,1.23-.488.423.423,0,0,1,.255-.089.915.915,0,0,1,.153.017,1.062,1.062,0,0,0,.182.02h0a.721.721,0,0,0,.446-.175,7.182,7.182,0,0,1,3.72-1.217A9.155,9.155,0,0,0,19,12.959,4.849,4.849,0,0,0,20.963,10.2c.02-.068.039-.132.059-.192.193-.6.307-.739.448-.788.094-.032.326-.126.531-.209.144-.058.269-.109.3-.12.051-.017.057-.049.056-.066S22.358,8.768,22.227,8.738Z" transform="translate(-6.303)"/></svg>